<svg xmlns="http://www.w3.org/2000/svg" width="319" height="87"  viewBox="0 0 319 87"><style>.st0{fill:#fff}.st0,.st1{fill-rule:evenodd;clip-rule:evenodd}.st2{fill:#fff}</style><path class="st0" d="M238.4 59.9c-2 0-3.9-.4-5.6-1.1-1.6-.7-3.1-1.8-4.1-3.3-1-1.5-1.5-3.2-1.5-5v-1.7h5.5v1.7c0 1.3.4 2.2 1.4 2.9 1 .8 2.5 1.2 4.3 1.2 1.6 0 2.9-.3 3.8-1 .7-.5 1.1-1.3 1.1-2.1V51c-.1-.7-.4-1.2-.9-1.6-.6-.5-1.8-1.2-4.8-2-2.9-.8-4.9-1.7-6.3-2.7-2.1-1.4-3.3-3.7-3.3-6.3 0-2.5 1-4.5 3.1-6.1 1.9-1.5 4.3-2.2 7.2-2.2 2 0 3.7.4 5.3 1.2 3.2 1.4 5.2 4.7 5.2 8.2v1.7h-5.6v-1.7c0-1.2-.4-2.2-1.2-2.9-.9-.8-2.1-1.2-3.7-1.2s-2.8.3-3.7 1c-.7.5-1.1 1.2-1.1 2s.3 1.4.9 1.9c.6.5 1.8 1.2 4.4 1.9 1.9.5 3.8 1.2 5.6 2.1 1.3.7 2.5 1.7 3.3 3 .8 1.2 1.2 2.7 1.2 4.3 0 2.6-1 4.7-3.1 6.2-1.9 1.4-4.4 2.1-7.4 2.1z"/><path class="st0" d="M258.4 59.9c-3 0-5.4-1.1-7.2-3.2-1.7-2-2.6-4.8-2.6-8.1V48c0-2.1.4-4 1.1-5.7.7-1.6 1.9-3.1 3.4-4.1 1.5-1 3.3-1.5 5.1-1.5h.2c2.5 0 4.6.8 6.3 2.3 1.7 1.6 2.7 3.8 2.7 6.1v1.7H262v-1.7c0-.9-.4-1.8-1.1-2.4-.6-.6-1.5-.9-2.3-.9h-.1c-1.4 0-2.4.4-3.1 1.4-.8 1.1-1.2 2.7-1.2 4.7v.6c0 2 .4 3.6 1.2 4.6.7.9 1.7 1.4 2.8 1.4h.2c1.1 0 2-.3 2.7-.9.6-.5 1-1.2 1-2l.1-1.6h5.5l-.1 1.8c-.1 1.5-.6 2.9-1.4 4.1-.8 1.2-2 2.2-3.3 2.8-1.6.9-3 1.2-4.5 1.2z"/><path class="st0" d="M277 59.9c-2.7 0-5.4-1.2-7.2-3.2-1.8-2.1-2.8-4.8-2.8-8.2V48c0-2.1.4-4 1.2-5.7.8-1.7 2-3.1 3.6-4.1 1.6-1 3.4-1.5 5.2-1.5h.2c3 0 5.5 1.1 7.4 3.2 1.9 2.1 2.8 4.9 2.8 8.2v.4c0 2.1-.4 4-1.2 5.7-1.6 3.4-5 5.6-8.7 5.6-.1.1-.4.1-.5.1zm-4.5-10.8c.1 1.6.5 3 1.4 4.1.8 1 1.9 1.6 3.2 1.6h.1c1.4 0 2.5-.5 3.3-1.6.9-1.1 1.4-2.7 1.4-4.7V48c0-1.2-.2-2.3-.7-3.3-.4-.9-.9-1.6-1.7-2.1-.7-.4-1.5-.7-2.3-.7-1.5 0-2.5.5-3.4 1.6-.9 1.2-1.4 2.7-1.4 4.7v.9zM296.2 59.9c-2.5 0-4.5-.8-5.9-2.3-1.3-1.5-2-3.6-2.1-6.3V37.1h5.5v13.8c0 3.4 1.4 3.7 2.7 3.7 2.8 0 3.7-1.2 4.1-2.4V37.1h5.5v22.4h-5.4V59c-1.2.6-2.7.9-4.4.9z"/><path class="st0" d="M315.1 59.9c-2.5 0-3.8-1-4.5-1.9-.9-1.1-1.3-2.7-1.3-4.7v-11h-3.5v-5.1h3.5v-4.9h5.5v4.9h3.9v5.1h-3.9v11c0 1 .2 1.3.2 1.3s.2.1.5.1c.2 0 .6 0 1.5-.2l1.9-.3.3 4.9-1.2.4c-.8.3-1.7.4-2.9.4z"/><g id="Page-1"><g id="Group"><path class="st0" d="M158.9 60.5c-2.3 0-4.4-.7-6.1-2.2-1.7-1.4-2.7-3.6-2.6-5.8 0-2.3.8-4.2 2.2-5.6h-1.8v-1c-.5 0-.8-.1-1.2-.1-.9 0-1.3.2-1.5.3v14.1h-17.1l-.2-.4c-1.1.5-2.3.8-3.5.8h-.3c-2.3 0-4.4-.7-6-2.2v1.8h-21V30h9.8v21.4h8.7c.2-1.8 1-3.3 2.2-4.5h-1.8v-2.3c0-1.6.5-3.1 1.5-4.4 1-1.3 2.3-2.4 3.9-3 1.5-.6 3.2-1 4.9-1h.2c2.8 0 5.2.8 7 2.3 1 .9 1.8 1.9 2.2 3.1v-5.1h9.2c.8-.3 1.6-.4 2.2-.4.8 0 1.5.1 2.3.3l1.6.5v1.5c.7-.6 1.5-1 2.3-1.4 1.5-.6 3.2-1 4.9-1h.2c2.9 0 5.2.8 7 2.3l-.7-2h10.2l1.8 6.6 1.8-6.6h10.2l-1 3c.7-.7 1.4-1.3 2.3-1.8 1.7-1 3.7-1.5 5.6-1.5h.2c3.2 0 5.8 1.1 7.8 3.2.6.6 1 1.3 1.4 2V28.6h9.6v31.5h-9.6v-3.3c-.9 1.1-2.1 2-3.4 2.5-1.6.7-3.3 1.1-5.2 1.1-3.4 0-6.2-1.1-8.4-3.2-2.2-2.2-3.3-5-3.3-8.5v-.1L183.6 60h-8.1l-4.6-13v6.5c0 1.9.3 2.7.5 3l.3.5v3.1h-8.8l-.2-.4c-1.1.5-2.3.7-3.5.7-.1.1-.3.1-.3.1zm48.8-7.7v-.5h-.5l.5.5zm-47.9-.8"/><path id="Combined-Shape" class="st1" d="M107.4 53.6h11.2v4.2h-16.5V32.2h5.3v21.4zm24.9 4.2c-.3-.5-.4-1.1-.5-1.7-1.2 1.4-3 2.1-4.8 2-1.9 0-3.4-.5-4.6-1.6-1.2-1-1.9-2.5-1.8-4.1 0-2 .8-3.6 2.2-4.6 1.5-1.1 3.7-1.6 6.5-1.6h2.3v-1.1c0-.9-.2-1.6-.7-2.1-.4-.5-1.2-.8-2.1-.8-.8 0-1.5.2-2 .6-.5.4-.7 1-.7 1.7H121c0-1.1.3-2.1 1-3.1s1.7-1.7 2.9-2.2c1.3-.6 2.8-.8 4.2-.8 2.3 0 4.2.6 5.6 1.8 1.4 1.2 2.1 2.8 2.1 5v8.2c0 1.8.3 3.2.8 4.1v.3h-5.3zm-4.2-3.5c.8 0 1.4-.2 2.1-.5.6-.3 1.1-.8 1.4-1.3v-3.3h-1.9c-2.5 0-3.9.9-4 2.6v.3c0 .6.2 1.2.7 1.6.4.4 1.1.6 1.7.6zm23.2-10.7c-.7-.1-1.3-.1-1.8-.1-1.9 0-3.2.7-3.8 2v12.4h-5.1v-19h4.8l.1 2.3c1-1.8 2.4-2.6 4.2-2.6.6 0 1.1.1 1.6.2v4.8zm13 14.2c-.3-.5-.4-1.1-.5-1.7-1.2 1.4-3 2.1-4.8 2-1.9 0-3.4-.5-4.6-1.6-1.2-1-1.9-2.5-1.8-4.1 0-2 .8-3.6 2.2-4.6 1.5-1.1 3.7-1.6 6.5-1.6h2.3v-1.1c0-.9-.2-1.6-.7-2.1-.4-.5-1.2-.8-2.1-.8-.9 0-1.5.2-2 .6-.5.4-.7 1-.7 1.7H153c0-1.1.3-2.1 1-3.1s1.7-1.7 2.9-2.2c1.3-.5 2.7-.8 4.2-.8 2.4 0 4.2.6 5.6 1.8 1.4 1.2 2.1 2.8 2.1 5v8.2c0 1.8.3 3.2.8 4.1v.3h-5.3zm-4.2-3.5c.8 0 1.4-.2 2.1-.5.6-.3 1.1-.8 1.4-1.3v-3.3h-1.9c-2.5 0-3.9.9-4.1 2.6v.3c0 .6.2 1.2.7 1.6.4.4 1.1.6 1.8.6zm19.3-2.7 3.5-12.8h5.3l-6.4 19H177l-6.4-19h5.3l3.5 12.8zm19.6 6.6c-2.8 0-5.1-.8-6.8-2.6-1.8-1.7-2.6-4-2.6-6.8v-.5c0-1.9.4-3.6 1.1-5.1.7-1.4 1.8-2.7 3.1-3.5 1.4-.8 3-1.2 4.6-1.2 2.6 0 4.6.8 6.1 2.5s2.2 4 2.2 7v2h-12.1c.1 1.1.6 2.2 1.5 3 .9.8 2 1.2 3.1 1.1 2 0 3.5-.7 4.6-2.1l2.5 2.8c-.8 1.1-1.9 2-3.1 2.5-1.2.6-2.6.9-4.2.9zm-.6-15.6c-1 0-1.8.3-2.5 1-.7.8-1.1 1.8-1.2 2.9h7.1v-.4c0-1.1-.3-2-.9-2.6-.6-.6-1.4-.9-2.5-.9zm16.7 15.2H210v-27h5.1v27z"/></g></g><path class="st1" d="M245 51.5c0-1.4-.5-2.5-1.5-3.4s-2.8-1.6-5.5-2.3c-2.6-.8-4.6-1.6-5.8-2.4-1.6-1.1-2.6-2.9-2.6-4.9 0-2 .8-3.5 2.4-4.8 1.6-1.2 3.7-1.8 6.2-1.8 1.7 0 3.2.3 4.6 1 2.6 1.2 4.3 3.8 4.2 6.7h-2.2c0-1.7-.6-3.2-1.8-4.2-1.2-1.1-2.8-1.6-4.8-1.6s-3.5.4-4.7 1.3c-1.1.8-1.8 2.1-1.7 3.4 0 1.3.5 2.4 1.6 3.2s2.7 1.5 5 2.2c1.8.4 3.6 1.1 5.2 2 1.1.6 2 1.4 2.7 2.4.6.9.9 2 .9 3.3 0 2-.8 3.6-2.4 4.8-1.6 1.2-3.7 1.8-6.4 1.8-1.8 0-3.5-.3-5-1-1.4-.5-2.6-1.5-3.4-2.7-.8-1.2-1.2-2.6-1.2-4h2.2c0 1.8.7 3.2 2 4.3s3.1 1.6 5.4 1.6c2 0 3.6-.4 4.8-1.3 1.1-.8 1.8-2.2 1.8-3.6zM258.4 56.4c1.5 0 2.7-.4 3.7-1.2 1-.8 1.6-2 1.6-3.2h2c-.1 1.1-.4 2.2-1.1 3.2-.7 1-1.6 1.7-2.6 2.2-1.1.5-2.3.8-3.6.8-2.5 0-4.5-.9-5.9-2.6s-2.2-4.1-2.2-7V48c0-1.9.3-3.5 1-5 .6-1.4 1.6-2.5 2.8-3.3 1.3-.8 2.8-1.2 4.3-1.2 2.1 0 3.8.6 5.2 1.9 1.4 1.3 2.1 3 2.2 4.9h-2c0-1.4-.6-2.7-1.6-3.6-1-.9-2.3-1.4-3.7-1.4-1.9 0-3.4.7-4.4 2.1-1.1 1.4-1.6 3.3-1.6 5.8v.6c0 2.4.5 4.3 1.6 5.7.9 1.2 2.6 2 4.3 1.9zM283.3 41.1c-1.6-1.8-3.6-2.7-6.2-2.7-1.6 0-3.1.4-4.4 1.2-1.3.8-2.3 2-3 3.4-.7 1.5-1.1 3.1-1.1 4.9v.4c0 2.9.8 5.3 2.4 7.1 1.5 1.8 3.8 2.7 6.1 2.7 3.2.1 6.1-1.7 7.4-4.6.7-1.5 1.1-3.1 1.1-5v-.4c.1-2.8-.7-5.2-2.3-7zm.3 7.3c0 2.4-.6 4.3-1.8 5.8-1.2 1.5-2.7 2.2-4.6 2.2-1.8 0-3.5-.8-4.6-2.2-1.2-1.5-1.8-3.3-1.8-5.6v-.4c0-2.4.6-4.3 1.8-5.8 1.2-1.5 2.7-2.2 4.6-2.2 1.2 0 2.4.3 3.3 1 1 .7 1.8 1.7 2.3 2.8.5 1.2.8 2.5.8 4v.4zM302.3 55.4c-1.3 1.8-3.3 2.8-6.1 2.8-2 0-3.6-.6-4.6-1.8-1.1-1.2-1.6-2.9-1.6-5.2V38.8h2.1v12.1c0 3.6 1.5 5.4 4.4 5.4 3 0 5-1.3 5.8-3.8V38.8h2.1v19h-2l-.1-2.4zM313.1 33.9v4.9h3.9v1.7h-3.9v12.7c0 1 .2 1.8.6 2.3.4.5 1 .8 1.9.8.4 0 .9-.1 1.7-.2l.1 1.7c-.5.2-1.3.3-2.2.3-1.4 0-2.5-.4-3.1-1.3-.6-.8-1-2.1-1-3.7V40.5h-3.5v-1.7h3.5v-4.9h2z"/><path class="st2" d="M0 48v15.2l42.3 23.2 42.2-23.2V48L42.3 71.2z"/><path class="st2" d="M42.3 23.2 0 0v43.2l42.3 23.2 42.2-23.2V0z"/><linearGradient id="Combined-Shape_00000165198528521648656120000016839554088276087175_" gradientUnits="userSpaceOnUse" x1="-134.495" y1="459.963" x2="-134.495" y2="458.963" gradientTransform="matrix(80 0 0 -80 10801.861 36800.844)"><stop offset="0" stop-color="#f1cf88"/><stop offset="1" stop-color="#f65a5a"/></linearGradient><path id="Combined-Shape_00000013881437400997376290000015603522497040671116_" d="m2.3 51.8 40 22 40-22v10l-40 22-40-22v-10zm0-48 40 22 40-22v38l-40 22-40-22v-38z" fill="url(#Combined-Shape_00000165198528521648656120000016839554088276087175_)"/></svg>