<svg xmlns="http://www.w3.org/2000/svg" width="316" height="80" viewBox="0 0 316 80"><defs><linearGradient id="linearGradient-1" x1="50%" x2="50%" y1="0%" y2="100%"><stop stop-color="#F1CF88" offset="0%"/><stop stop-color="#F65A5A" offset="100%"/></linearGradient></defs><g id="Page-1" fill="none" fill-rule="evenodd"><g id="Group"><path id="Combined-Shape" fill="#000000" d="M105.18 49.76h11.2V54H99.9V28.4h5.27v21.36zm24.9 4.24a5.64 5.64 0 0 1-.5-1.7 6.15 6.15 0 0 1-4.8 2.05c-1.87 0-3.4-.54-4.63-1.62a5.2 5.2 0 0 1-1.84-4.07c0-2.02.75-3.57 2.24-4.64 1.5-1.08 3.65-1.63 6.48-1.64h2.34V41.3c0-.88-.23-1.58-.68-2.1-.45-.54-1.16-.8-2.14-.8-.85 0-1.52.2-2 .62-.5.4-.74.97-.74 1.68h-5.08c0-1.1.34-2.12 1.02-3.06a6.74 6.74 0 0 1 2.88-2.2 10.5 10.5 0 0 1 4.19-.8c2.34 0 4.2.59 5.58 1.77 1.38 1.17 2.06 2.83 2.06 4.96v8.25c.02 1.8.27 3.17.76 4.1V54h-5.13zm-4.2-3.53c.76 0 1.45-.17 2.08-.5.63-.34 1.1-.79 1.4-1.35v-3.27h-1.9c-2.54 0-3.89.88-4.05 2.64l-.02.3c0 .63.22 1.15.67 1.56a2.6 2.6 0 0 0 1.83.62zm23.17-10.73c-.69-.09-1.3-.14-1.82-.14-1.93 0-3.19.65-3.78 1.95V54h-5.08V34.98h4.8l.14 2.27c1.02-1.75 2.43-2.62 4.23-2.62.56 0 1.1.08 1.58.23l-.07 4.88zM162 54a5.64 5.64 0 0 1-.5-1.7 6.15 6.15 0 0 1-4.8 2.05c-1.87 0-3.41-.54-4.64-1.62a5.2 5.2 0 0 1-1.84-4.07c0-2.02.75-3.57 2.24-4.64 1.5-1.08 3.66-1.63 6.48-1.64h2.34V41.3c0-.88-.23-1.58-.68-2.1-.45-.54-1.16-.8-2.13-.8-.86 0-1.53.2-2.01.62-.5.4-.73.97-.73 1.68h-5.08c0-1.1.34-2.12 1.02-3.06a6.74 6.74 0 0 1 2.88-2.2 10.5 10.5 0 0 1 4.18-.8c2.35 0 4.2.59 5.58 1.77 1.38 1.17 2.07 2.83 2.07 4.96v8.25c.01 1.8.26 3.17.75 4.1V54H162zm-4.2-3.53c.75 0 1.44-.17 2.07-.5.64-.34 1.1-.79 1.41-1.35v-3.27h-1.9c-2.54 0-3.9.88-4.06 2.64l-.02.3c0 .63.23 1.15.67 1.56a2.6 2.6 0 0 0 1.83.62zm19.34-2.68l3.53-12.81h5.3L179.57 54h-4.86l-6.42-19.02h5.31l3.54 12.81zm19.6 6.56c-2.8 0-5.06-.85-6.82-2.56-1.75-1.72-2.62-4-2.62-6.84v-.5c0-1.9.37-3.61 1.1-5.12a8.13 8.13 0 0 1 3.14-3.48 8.8 8.8 0 0 1 4.63-1.22c2.6 0 4.65.82 6.15 2.46 1.5 1.64 2.24 3.97 2.24 6.98v2.07h-12.11a4.72 4.72 0 0 0 1.48 3 4.49 4.49 0 0 0 3.14 1.12c1.96 0 3.49-.71 4.59-2.13l2.5 2.8a7.63 7.63 0 0 1-3.1 2.52c-1.3.6-2.74.9-4.32.9zm-.58-15.6c-1.01 0-1.83.33-2.46 1.01a5.27 5.27 0 0 0-1.2 2.92h7.07v-.4c-.03-1.13-.33-2-.92-2.61-.58-.62-1.42-.93-2.5-.93zM212.79 54h-5.1V27h5.1v27zm29.94-6.3c0-1.41-.5-2.53-1.5-3.36-1-.83-2.81-1.61-5.46-2.35-2.65-.75-4.58-1.56-5.8-2.44a5.75 5.75 0 0 1-2.6-4.89c0-1.95.8-3.54 2.41-4.77 1.61-1.22 3.67-1.84 6.18-1.84 1.7 0 3.22.33 4.56.99a7.2 7.2 0 0 1 4.23 6.66h-2.18c0-1.74-.6-3.15-1.8-4.2-1.19-1.07-2.8-1.6-4.8-1.6-1.97 0-3.52.44-4.68 1.31a4.08 4.08 0 0 0-1.74 3.42c0 1.3.52 2.36 1.56 3.18 1.04.82 2.71 1.54 5 2.17a23.5 23.5 0 0 1 5.23 1.95 7.44 7.44 0 0 1 2.67 2.42c.6.94.9 2.04.9 3.32 0 2.02-.8 3.63-2.42 4.85-1.61 1.22-3.73 1.83-6.37 1.83-1.8 0-3.46-.32-4.97-.97a7.59 7.59 0 0 1-3.42-2.7 6.99 6.99 0 0 1-1.17-4h2.16c0 1.81.67 3.24 2.02 4.28s3.14 1.56 5.38 1.56c2 0 3.6-.44 4.8-1.31a4.12 4.12 0 0 0 1.8-3.5zm13.38 4.88c1.46 0 2.69-.42 3.68-1.24a4.36 4.36 0 0 0 1.6-3.21h2.03a5.96 5.96 0 0 1-1.1 3.17 6.83 6.83 0 0 1-2.65 2.24c-1.11.54-2.3.81-3.56.81-2.5 0-4.48-.87-5.94-2.6s-2.19-4.07-2.19-7v-.63c0-1.87.33-3.53.99-4.97a7.59 7.59 0 0 1 2.82-3.34 7.79 7.79 0 0 1 4.3-1.18c2.08 0 3.8.62 5.16 1.86a6.8 6.8 0 0 1 2.17 4.9h-2.02a5.17 5.17 0 0 0-1.61-3.6 5.2 5.2 0 0 0-3.7-1.37c-1.9 0-3.37.69-4.42 2.06-1.05 1.37-1.58 3.3-1.58 5.76v.62c0 2.43.53 4.32 1.58 5.68a5.28 5.28 0 0 0 4.44 2.04zm10.35-8.37c0-1.83.35-3.48 1.06-4.94a8.1 8.1 0 0 1 3-3.42 8.1 8.1 0 0 1 4.41-1.22c2.53 0 4.58.89 6.15 2.66 1.57 1.78 2.36 4.13 2.36 7.06v.44c0 1.84-.35 3.5-1.06 4.96a7.94 7.94 0 0 1-7.41 4.6 7.83 7.83 0 0 1-6.15-2.66c-1.57-1.78-2.36-4.13-2.36-7.06v-.42zm2.1.58c0 2.27.6 4.14 1.78 5.6a5.67 5.67 0 0 0 4.63 2.19c1.9 0 3.43-.73 4.61-2.2 1.18-1.45 1.77-3.38 1.77-5.77v-.4c0-1.45-.27-2.78-.81-4a6.5 6.5 0 0 0-2.27-2.8 5.8 5.8 0 0 0-3.34-.99c-1.87 0-3.4.74-4.59 2.2-1.18 1.48-1.77 3.4-1.77 5.78v.39zm31.46 6.8c-1.27 1.84-3.3 2.76-6.07 2.76-2.03 0-3.57-.59-4.62-1.77-1.06-1.17-1.6-2.92-1.62-5.22V34.98h2.1v12.11c0 3.62 1.46 5.43 4.39 5.43 3.04 0 4.97-1.26 5.78-3.78V34.98h2.11V54h-2.04l-.03-2.4zm10.8-21.48v4.87h3.94v1.72h-3.93v12.68c0 1.05.19 1.84.57 2.35.38.52 1.01.78 1.9.78.36 0 .92-.06 1.71-.18l.09 1.72c-.55.2-1.3.3-2.25.3-1.44 0-2.5-.42-3.15-1.26-.65-.83-.98-2.07-.98-3.7V36.7h-3.5v-1.72h3.5v-4.87h2.1z"/><path id="Combined-Shape" fill="url(#linearGradient-1)" fill-rule="nonzero" d="M0 48l40 22 40-22v10L40 80 0 58V48zM0 0l40 22L80 0v38L40 60 0 38V0z"/></g></g></svg>
